# xmcd
#
# Track frame offsets:
#       150
#       11146
#       24463
#       37506
#       51824
#       64123
#       77060
#       90079
#       102354
#       115896
#       127706
#       138601
#       151025
#       163261
#       175381
#
# Disc length: 2498 seconds
#
# Revision: 0
# Processed by: cddbd v1.5.1PL2 Copyright (c) Steve Scherf et al.
# Submitted via: CD-DA_X-Tractor v0.24
#
DISCID=af09c00f
DTITLE=Los Panchos - 30 Grandes de Los Panchos (v1)
DYEAR=2006
DGENRE=
TTITLE0=Pecadora
TTITLE1=Nada
TTITLE2=Historia de un amor
TTITLE3=En mi viejo San Juan
TTITLE4=Caminemos
TTITLE5=Perfidia
TTITLE6=Flor de Azalea
TTITLE7=Voy a apagar la luz
TTITLE8=No me quieras tanto
TTITLE9=Se te olvida (La mentira)
TTITLE10=Solo
TTITLE11=Dilema
TTITLE12=Espérame en el cielo
TTITLE13=Sabor a mí
TTITLE14=Lo dudo
EXTD=
EXTT0=
EXTT1=
EXTT2=
EXTT3=
EXTT4=
EXTT5=
EXTT6=
EXTT7=
EXTT8=
EXTT9=
EXTT10=
EXTT11=
EXTT12=
EXTT13=
EXTT14=
PLAYORDER=
